<svg xmlns="http://www.w3.org/2000/svg" xmlns:xlink="http://www.w3.org/1999/xlink" viewBox="0 0 800 800"><defs><style>.cls-1{opacity:0.2;fill:url(#linear-gradient);}.cls-2{opacity:0.4;fill:url(#linear-gradient-2);}.cls-3{fill:url(#linear-gradient-3);}.cls-4{font-size:207.38px;fill:#fff;font-family:ArialRoundedMTBold, Arial Rounded MT Bold;}.cls-5{fill:none;stroke:#fff;stroke-miterlimit:10;stroke-width:15px;}</style><linearGradient id="linear-gradient" y1="400" x2="800" y2="400" gradientUnits="userSpaceOnUse"><stop offset="0" stop-color="#b22222"/><stop offset="0.39" stop-color="#b42121"/><stop offset="0.58" stop-color="#bc1e1e"/><stop offset="0.73" stop-color="#c91818"/><stop offset="0.85" stop-color="#db1010"/><stop offset="0.96" stop-color="#f30505"/><stop offset="1" stop-color="red"/></linearGradient><linearGradient id="linear-gradient-2" x1="75" y1="400" x2="725" y2="400" xlink:href="#linear-gradient"/><linearGradient id="linear-gradient-3" x1="400.15" y1="385.29" x2="394.65" y2="922.26" xlink:href="#linear-gradient"/></defs><title>warning_gelombang_1</title><g id="Layer_2" data-name="Layer 2"><g id="Layer_23" data-name="Layer 23"><path class="cls-1" d="M400,0C179.09,0,0,179.08,0,400S179.09,800,400,800,800,620.91,800,400,620.91,0,400,0Zm0,725C220.51,725,75,579.49,75,400S220.51,75,400,75,725,220.5,725,400,579.49,725,400,725Z"/><circle class="cls-2" cx="400" cy="400" r="325"/><circle class="cls-3" cx="400" cy="400" r="268.5"/><text class="cls-4" transform="translate(365.04 477.07)">!</text><path class="cls-5" d="M399.57,515.66H265.48a22.36,22.36,0,0,1-19.37-33.54L313.16,366l67-116.12a22.36,22.36,0,0,1,38.73,0L486,366l67,116.13a22.36,22.36,0,0,1-19.36,33.54Z"/></g></g></svg>